<svg height="512" viewBox="0 0 512 512" width="512" xmlns="http://www.w3.org/2000/svg" xmlns:xlink="http://www.w3.org/1999/xlink"><linearGradient id="a" gradientUnits="userSpaceOnUse" x1="29.248" x2="511.123" y1="482.752" y2=".877" data-name="New Gradient Swatch 1"><stop offset="0" stop-color="#003f8a"/><stop offset=".518" stop-color="#00d7df"/><stop offset="1" stop-color="#006df0"/></linearGradient><linearGradient id="b" x1="-10.752" x2="471.123" xlink:href="#a" y1="442.752" y2="-39.123"/><linearGradient id="c" x1="-62.752" x2="419.123" xlink:href="#a" y1="390.753" y2="-91.123"/><linearGradient id="d" x1="121.247" x2="603.123" xlink:href="#a" y1="574.752" y2="92.877"/><g><path d="m272 104h-32a88.1 88.1 0 0 0 -88 88v128a88.127 88.127 0 0 0 76.57 87.26 7.868 7.868 0 0 0 3.36.74h40.07a88.1 88.1 0 0 0 88-88v-128a88.1 88.1 0 0 0 -88-88zm72 216a72.083 72.083 0 0 1 -72 72h-32a72.083 72.083 0 0 1 -72-72v-72h176zm0-88h-176v-40a72.083 72.083 0 0 1 72-72h32a72.083 72.083 0 0 1 72 72z" fill="url(#a)"/><path d="m240 216h32a8 8 0 0 0 8-8v-64a8 8 0 0 0 -8-8h-32a8 8 0 0 0 -8 8v64a8 8 0 0 0 8 8zm8-64h16v48h-16z" fill="url(#b)"/><path d="m208 88h96a8 8 0 0 0 6.4-12.8l-48-64a8 8 0 0 0 -12.8 0l-48 64a8 8 0 0 0 6.4 12.8zm48-58.667 32 42.667h-64z" fill="url(#c)"/><path d="m304 424h-96a8 8 0 0 0 -6.4 12.8l48 64a8 8 0 0 0 12.8 0l48-64a8 8 0 0 0 -6.4-12.8zm-48 58.667-32-42.667h64z" fill="url(#d)"/></g></svg>